<svg width="194" height="169" fill="none" xmlns="http://www.w3.org/2000/svg"><path d="M43.823 74.059c1.072-.412 1.947-.41 2.622.005.663.381 1.113.883 1.352 1.506.332.865.252 1.948-.241 3.249-.493 1.3-1.273 2.632-2.338 3.994a24.266 24.266 0 0 1-3.603 3.645c-1.357 1.117-2.745 1.948-4.164 2.492-2.11.81-4.354 1.017-6.73.618-2.355-.445-4.543-1.491-6.564-3.137-1.986-1.659-3.537-3.942-4.653-6.848-.917-2.388-1.377-4.93-1.38-7.629a35.73 35.73 0 0 1 1.075-8.213 54.44 54.44 0 0 1 2.755-8.025c1.151-2.586 2.396-4.93 3.733-7.03 1.371-2.115 2.707-3.858 4.006-5.23 1.287-1.407 2.414-2.297 3.383-2.668 1.211-.465 2.23-.5 3.057-.102.849.349 1.48 1.06 1.89 2.133.333.864.419 1.606.259 2.223-.139.57-.488 1.16-1.047 1.771-1.776 1.992-3.494 4.24-5.153 6.742a47.118 47.118 0 0 0-4.105 7.769c-1.124 2.655-1.846 5.274-2.164 7.857-.318 2.584-.052 4.983.798 7.197.93 2.422 2.118 4.07 3.565 4.944 1.447.874 3 .992 4.661.354.83-.319 1.664-.837 2.5-1.555a32.257 32.257 0 0 0 2.356-2.393 46.56 46.56 0 0 1 2.221-2.282c.719-.712 1.355-1.175 1.909-1.387zm18.236 4.552c-.97.372-1.96.375-2.974.01-.979-.378-1.754-1.312-2.325-2.8-.305-.795-.633-1.96-.983-3.492a93.022 93.022 0 0 1-.88-5.082 132.355 132.355 0 0 1-.726-5.616 99.607 99.607 0 0 1-.332-5.054c-.068-1.522-.056-2.678.038-3.468.145-.969.374-1.613.688-1.932.336-.367.694-.623 1.074-.77a3.494 3.494 0 0 1 2.16-.113c.782.176 1.445.973 1.99 2.392.212.553.454 1.493.724 2.818.258 1.29.543 2.809.855 4.555.313 1.745.611 3.556.895 5.433.318 1.862.603 3.639.855 5.328.273 1.643.505 3.022.695 4.14.16.931.042 1.711-.352 2.339-.347.649-.814 1.086-1.402 1.312zm-6.264-34.158c-1.142.438-2.324.514-3.545.229-1.234-.32-2.124-1.19-2.668-2.608-.452-1.176-.523-2.241-.214-3.193.31-.953.802-1.737 1.479-2.354.697-.665 1.357-1.117 1.98-1.356.623-.24 1.368-.366 2.236-.382.854-.05 1.69.165 2.51.645.84.431 1.5 1.27 1.978 2.515.319.83.317 1.705-.006 2.623a6.71 6.71 0 0 1-1.582 2.393c-.684.7-1.407 1.196-2.168 1.488zm24.823 26.14c-.83.32-1.767.361-2.81.126-1.021-.282-1.997-.86-2.928-1.734-.944-.908-1.715-2.14-2.313-3.698-.796-2.076-1.37-4.396-1.72-6.962a83.764 83.764 0 0 1-.58-7.875 284.15 284.15 0 0 1-.112-7.58c-.004-1.15.204-2.003.625-2.562.407-.593 1.06-1.062 1.96-1.407 2.042-.784 3.454-.155 4.238 1.886.133.346.236 1.08.31 2.204.06 1.088.103 2.441.129 4.06.06 1.604.132 3.343.216 5.216.105 1.825.258 3.672.46 5.54.222 1.82.497 3.521.826 5.102.331-1.517.636-3.36.914-5.532.3-2.219.618-4.544.954-6.976.372-2.445.796-4.752 1.274-6.92.465-2.203 1.038-4.07 1.72-5.603.682-1.532 1.525-2.49 2.529-2.876a6.239 6.239 0 0 1 2.638-.417c.916.006 1.847.363 2.793 1.071.934.674 1.882 1.799 2.844 3.375.997 1.562 2.027 3.728 3.09 6.496a23.886 23.886 0 0 0 1.916 3.909c.769 1.173 1.63 2.074 2.585 2.7.942.59 1.983.667 3.125.229 1.972-.757 3.597-1.798 4.876-3.122 1.278-1.324 2.319-2.697 3.123-4.117a83.5 83.5 0 0 0 1.983-3.679c.298-.67.567-1.21.807-1.62.274-.423.533-.68.775-.774.726-.278 1.318-.287 1.776-.026.492.247.864.7 1.117 1.357.132.346.084 1.1-.146 2.26-.229 1.16-.648 2.55-1.256 4.174a32.975 32.975 0 0 1-2.266 4.8 21.968 21.968 0 0 1-3.304 4.424c-1.278 1.324-2.73 2.298-4.356 2.923-2.733 1.049-5.186 1.435-7.357 1.156-2.15-.326-4.102-1.482-5.857-3.468-1.768-2.02-3.43-5.055-4.983-9.103l-.2-.52a74.2 74.2 0 0 0-1.147-2.834c-.319-.83-.63-1.485-.933-1.965-.176 1.299-.394 2.851-.653 4.658a468.832 468.832 0 0 1-.763 5.771c-.296 2.02-.634 4.035-1.013 6.046a63.67 63.67 0 0 1-1.337 5.516c-.464 1.686-.993 3.1-1.587 4.241-.594 1.141-1.255 1.851-1.981 2.13zm47.598-16.246c-2.145.824-4.161.744-6.047-.24-1.899-1.017-3.493-3.204-4.781-6.56a31.175 31.175 0 0 1-1.744-6.715 34.78 34.78 0 0 1-.243-6.993c.177-2.33.579-4.49 1.206-6.477.661-2 1.569-3.719 2.725-5.155 1.143-1.47 2.51-2.512 4.101-3.123 2.699-1.036 5.089-1.12 7.169-.25 2.08.868 3.552 2.427 4.415 4.676.664 1.73.784 3.49.36 5.281-.403 1.743-1.205 3.48-2.406 5.211-1.201 1.732-2.633 3.432-4.294 5.102a79.212 79.212 0 0 1-5.24 4.81c.305 1.313.644 2.453 1.016 3.422.225.588.667.756 1.324.504 1.557-.598 3.125-1.478 4.704-2.64a48.26 48.26 0 0 0 4.692-4.064 134.92 134.92 0 0 0 4.318-4.575 168.26 168.26 0 0 0 3.643-4.316c1.1-1.375 2.007-2.478 2.72-3.307.735-.878 1.241-1.37 1.518-1.476.761-.292 1.401-.28 1.92.037.518.317.877.735 1.077 1.254.093.242-.169.958-.784 2.147-.581 1.176-1.448 2.64-2.601 4.393a101.443 101.443 0 0 1-3.959 5.51 98.563 98.563 0 0 1-4.778 5.704c-1.677 1.835-3.383 3.442-5.116 4.822-1.685 1.401-3.324 2.407-4.915 3.018zm-5.67-15.39c1.1-1.375 2.169-2.778 3.208-4.21 1.06-1.478 1.838-2.968 2.334-4.468.482-1.535.425-3.081-.173-4.638-.172-.45-.406-.697-.702-.743-.308-.08-.688-.034-1.137.14-1.211.464-2.113 1.425-2.704 2.883-.557 1.445-.891 3.16-1.002 5.148-.089 1.94-.03 3.902.176 5.888zM16.168 161.72c-1.343 0-2.409-.37-3.196-1.112-.741-.695-1.112-1.691-1.112-2.988 0-1.204.324-2.223.973-3.057.648-.881 1.9-1.715 3.752-2.502l.417-.139c-1.158-.232-1.969-.88-2.432-1.946-.417-1.065-.625-2.293-.625-3.683 0-.787.139-2.061.417-3.822a288.661 288.661 0 0 1 2.363-12.786c.463-2.27.856-4.263 1.18-5.977.881-3.937 2.016-7.412 3.406-10.423 1.39-3.012 3.266-5.351 5.629-7.019 2.362-1.714 5.397-2.571 9.103-2.571 2.826 0 5.606.602 8.339 1.807 2.78 1.158 5.305 2.802 7.575 4.933a24.335 24.335 0 0 1 5.42 7.506c1.39 2.872 2.085 6.022 2.085 9.45 0 3.892-1.53 7.807-4.587 11.744-3.057 3.938-7.343 7.714-12.856 11.328-5.466 3.567-11.86 6.787-19.18 9.659a39.363 39.363 0 0 1-3.265 1.112c-.927.324-2.062.486-3.406.486zm5.977-11.813c6.717-2.687 12.138-5.259 16.26-7.714 4.124-2.455 7.112-5.05 8.965-7.783 1.9-2.733 2.85-5.837 2.85-9.312 0-1.946-.65-3.799-1.947-5.559-1.297-1.761-2.964-3.174-5.003-4.239-2.038-1.112-4.193-1.668-6.463-1.668-2.455 0-4.424.996-5.906 2.988-1.483 1.946-2.664 5.282-3.544 10.007a589.737 589.737 0 0 0-1.32 6.185 513.27 513.27 0 0 1-1.252 6.323c-.37 1.993-.695 3.66-.973 5.004-.231 1.343-.37 2.131-.416 2.363-.232 1.389-.649 2.524-1.251 3.405zm58.486 9.867c-3.29 0-5.93-1.158-7.922-3.474-1.993-2.363-2.989-5.513-2.989-9.451 0-1.251.162-2.525.487-3.822.37-1.297.81-2.502 1.32-3.614-.278-.416-.51-.949-.695-1.598-.139-.695-.208-1.506-.208-2.432 0-3.011.532-5.768 1.598-8.27 1.066-2.548 2.502-4.748 4.309-6.601 1.806-1.853 3.798-3.29 5.976-4.309 2.177-1.019 4.378-1.529 6.602-1.529 3.798 0 6.902 1.274 9.311 3.822 2.456 2.549 3.683 6.51 3.683 11.884 0 2.687-.417 5.42-1.25 8.2a39.147 39.147 0 0 1-3.405 7.991c-1.39 2.502-3.012 4.749-4.865 6.741-1.807 1.992-3.752 3.567-5.837 4.725-2.039 1.158-4.077 1.737-6.115 1.737zm-1.112-23.488c.231.51.347 1.112.347 1.807 0 .695-.139 1.413-.417 2.154-.278.742-.556 1.738-.834 2.988-.278 1.205-.417 2.942-.417 5.212 0 .603.07 1.112.209 1.529.185.371.579.556 1.181.556 1.575 0 3.058-.51 4.448-1.529 1.436-1.019 2.71-2.362 3.822-4.03 1.158-1.668 2.13-3.521 2.918-5.56a35.18 35.18 0 0 0 1.877-6.323c.463-2.178.694-4.193.694-6.046 0-1.205-.231-2.038-.694-2.502-.464-.463-1.274-.695-2.433-.695-1.575 0-3.196.51-4.864 1.529-1.621.973-2.988 2.317-4.1 4.031-1.112 1.667-1.668 3.567-1.668 5.698 0 .417-.023.811-.07 1.181zm68.356 26.268c-3.15 0-6.069-.672-8.756-2.015-2.687-1.297-5.142-3.011-7.366-5.142a48.414 48.414 0 0 1-5.976-7.089c-1.714-2.594-3.174-5.142-4.378-7.644a190.318 190.318 0 0 1-1.529 6.533l-1.042 4.516c-.232.927-.487 1.83-.765 2.711-.232.88-.602 1.598-1.112 2.154-.509.556-1.227.834-2.154.834-1.992 0-3.266-.672-3.822-2.015-.556-1.39-.834-3.151-.834-5.282 0-1.899.301-4.401.903-7.505.649-3.104 1.506-6.578 2.572-10.424a213.37 213.37 0 0 1 3.683-11.883 216.295 216.295 0 0 1 4.586-12.022c1.622-3.938 3.243-7.505 4.865-10.701 1.019-1.946 1.922-3.174 2.71-3.683.787-.556 1.714-.834 2.779-.834 1.066 0 1.877.278 2.433.834.556.555.833 1.297.833 2.223 0 .602-.139 1.205-.416 1.807-.278.602-.58 1.343-.904 2.224-1.065 2.362-2.177 5.119-3.335 8.269a211.526 211.526 0 0 0-3.336 9.66 250.448 250.448 0 0 0-2.849 9.381c2.27-1.344 4.795-2.641 7.574-3.892a100.57 100.57 0 0 1 8.409-3.474c2.872-1.066 5.559-1.9 8.061-2.502 2.502-.602 4.609-.903 6.324-.903 1.343 0 2.362.394 3.057 1.181.695.788 1.043 1.645 1.043 2.571 0 .695-.209 1.39-.626 2.085-.417.695-1.297 1.297-2.64 1.807a1098.761 1098.761 0 0 0-13.273 4.517c-4.355 1.529-9.196 3.335-14.524 5.42a80.603 80.603 0 0 0 3.891 6.741 60.606 60.606 0 0 0 4.795 6.393c1.714 1.946 3.475 3.544 5.282 4.795 1.806 1.204 3.59 1.807 5.351 1.807 2.594 0 5.096-.51 7.505-1.529a36.258 36.258 0 0 0 6.671-3.822c2.038-1.529 3.822-3.011 5.351-4.448a528.462 528.462 0 0 1 3.683-3.335c.509-.51.996-.88 1.459-1.112.51-.232 1.135-.348 1.876-.348.881 0 1.552.278 2.016.834.509.51.741 1.182.694 2.016-.046.787-.44 1.575-1.181 2.362-.602.649-1.552 1.691-2.849 3.127-1.251 1.39-2.78 2.942-4.586 4.656a58.077 58.077 0 0 1-5.907 4.865 32.559 32.559 0 0 1-6.81 3.752c-2.409 1.02-4.888 1.529-7.436 1.529zm27.328-4.03c-1.298 0-2.456-.44-3.475-1.321-.973-.88-1.459-2.316-1.459-4.308 0-1.066.139-2.571.417-4.517.324-1.946.741-4.054 1.25-6.324.51-2.316 1.066-4.609 1.668-6.88.649-2.27 1.274-4.285 1.876-6.045.603-1.807 1.136-3.151 1.599-4.031.602-1.065 1.158-1.714 1.668-1.946.556-.278 1.088-.417 1.598-.417.926 0 1.783.278 2.571.834.834.556 1.251 1.784 1.251 3.683 0 .742-.139 1.946-.417 3.614a302.964 302.964 0 0 1-1.042 5.698 253.673 253.673 0 0 1-1.39 6.741 325.307 325.307 0 0 1-1.39 6.602c-.417 2.038-.764 3.752-1.042 5.142-.232 1.158-.719 2.015-1.46 2.571-.695.602-1.436.904-2.223.904zm7.991-42.668c-1.529 0-2.942-.44-4.239-1.321-1.297-.926-1.946-2.339-1.946-4.238 0-1.576.394-2.85 1.182-3.823.787-.972 1.714-1.667 2.779-2.084 1.112-.464 2.085-.695 2.919-.695.834 0 1.76.185 2.78.556 1.019.324 1.899.949 2.64 1.876.788.88 1.182 2.154 1.182 3.822 0 1.112-.394 2.131-1.182 3.058-.787.88-1.76 1.575-2.918 2.084-1.112.51-2.178.765-3.197.765z" fill="#000"/></svg>